<svg width="32" height="16" viewBox="0 0 32 16" fill="none" xmlns="http://www.w3.org/2000/svg">
<path d="M8 5V6H10V8H9V9H11V8H12V5H11V4H9V5H8Z" fill="#E0DDFF"/>
<path d="M8 6V8H10V6H8Z" fill="#2121FF"/>
<path d="M2 5V6H4V8H3V9H5V8H6V5H5V4H3V5H2Z" fill="#E0DDFF"/>
<path d="M2 6V8H4V6H2Z" fill="#2121FF"/>
<path d="M24 5V6H26V8H25V9H27V8H28V5H27V4H25V5H24Z" fill="#E0DDFF"/>
<path d="M24 6V8H26V6H24Z" fill="#2121FF"/>
<path d="M18 5V6H20V8H19V9H21V8H22V5H21V4H19V5H18Z" fill="#E0DDFF"/>
<path d="M18 6V8H20V6H18Z" fill="#2121FF"/>
</svg>
