<svg width="16" height="16" viewBox="0 0 16 16" fill="none" xmlns="http://www.w3.org/2000/svg">
<path d="M0 7V5H1V4H3V5H4V7H3V8H2V9H1V10H4V11H0V9H1V8H2V7H3V5H1V7H0Z" fill="#FCB5FF"/>
<path fill-rule="evenodd" clip-rule="evenodd" d="M5 11V5H6V10H7V11H5ZM7 10H8V4H6V5H7V10Z" fill="#FCB5FF"/>
<path fill-rule="evenodd" clip-rule="evenodd" d="M13 11V5H14V10H15V11H13ZM15 10H16V4H14V5H15V10Z" fill="#FCB5FF"/>
<path fill-rule="evenodd" clip-rule="evenodd" d="M9 11V5H10V10H11V11H9ZM11 10H12V4H10V5H11V10Z" fill="#FCB5FF"/>
</svg>
