<svg width="24" height="16" viewBox="0 0 24 16" fill="none" xmlns="http://www.w3.org/2000/svg">
<path d="M2 4H7V5H6V6H5V7H6V8H7V10H6V11H3V10H2V9H3V10H6V8H5V7H4V6H5V5H2V4Z" fill="#FCB5FF"/>
<path fill-rule="evenodd" clip-rule="evenodd" d="M8 10V5H9V10H8ZM11 10H9V11H11V10ZM11 5H9V4H11V5ZM11 5V10H12V5H11Z" fill="#FCB5FF"/>
<path fill-rule="evenodd" clip-rule="evenodd" d="M13 10V5H14V10H13ZM16 10H14V11H16V10ZM16 5H14V4H16V5ZM16 5V10H17V5H16Z" fill="#FCB5FF"/>
<path fill-rule="evenodd" clip-rule="evenodd" d="M18 10V5H19V10H18ZM21 10H19V11H21V10ZM21 5H19V4H21V5ZM21 5V10H22V5H21Z" fill="#FCB5FF"/>
</svg>
