<svg width="23" height="16" viewBox="0 0 23 16" fill="none" xmlns="http://www.w3.org/2000/svg">
<g clip-path="url(#clip0)">
<path d="M1 4H6V5H2V6H5V7H6V10H5V11H2V10H1V9H2V10H5V7H1V4Z" fill="#FCB5FF"/>
<path fill-rule="evenodd" clip-rule="evenodd" d="M7 10V5H8V10H7ZM10 10H8V11H10V10ZM10 5H8V4H10V5ZM10 5V10H11V5H10Z" fill="#FCB5FF"/>
<path fill-rule="evenodd" clip-rule="evenodd" d="M12 10V5H13V10H12ZM15 10H13V11H15V10ZM15 5H13V4H15V5ZM15 5V10H16V5H15Z" fill="#FCB5FF"/>
<path fill-rule="evenodd" clip-rule="evenodd" d="M17 10V5H18V10H17ZM20 10H18V11H20V10ZM20 5H18V4H20V5ZM20 5V10H21V5H20Z" fill="#FCB5FF"/>
</g>
<defs>
<clipPath id="clip0">
<rect width="23" height="16" fill="white"/>
</clipPath>
</defs>
</svg>
