<svg xmlns="http://www.w3.org/2000/svg" viewBox="0 -0.5 64 16" shape-rendering="crispEdges">
<metadata>Made with Pixels to Svg https://codepen.io/shshaw/pen/XbxvNj</metadata>
<path stroke="#000000" d="M4 0h2M10 0h2M20 0h2M26 0h2M36 0h2M42 0h2M52 0h2M58 0h2M3 1h1M6 1h1M9 1h1M12 1h1M19 1h1M22 1h1M25 1h1M28 1h1M35 1h1M38 1h1M41 1h1M44 1h1M51 1h1M54 1h1M57 1h1M60 1h1M3 2h1M6 2h4M12 2h1M19 2h1M22 2h4M28 2h1M35 2h1M38 2h4M44 2h1M51 2h1M54 2h4M60 2h1M3 3h1M12 3h1M19 3h1M28 3h1M35 3h1M44 3h1M51 3h1M60 3h1M3 4h1M12 4h1M19 4h1M28 4h1M35 4h1M44 4h1M51 4h1M60 4h1M3 5h1M12 5h1M19 5h1M28 5h1M35 5h1M44 5h1M51 5h1M60 5h1M3 6h1M12 6h1M19 6h1M28 6h1M35 6h1M44 6h1M51 6h1M60 6h1M4 7h8M20 7h8M36 7h8M52 7h8M4 8h1M11 8h1M20 8h1M27 8h1M36 8h1M43 8h1M52 8h1M59 8h1M3 9h2M11 9h2M19 9h2M27 9h2M35 9h2M43 9h2M51 9h2M59 9h2M2 10h1M4 10h1M11 10h1M13 10h1M18 10h1M20 10h1M27 10h1M29 10h1M34 10h1M36 10h1M43 10h1M45 10h1M50 10h1M52 10h1M59 10h1M61 10h1M2 11h3M11 11h1M13 11h1M18 11h1M20 11h1M27 11h1M29 11h1M34 11h1M36 11h1M43 11h3M50 11h1M52 11h1M59 11h1M61 11h1M4 12h1M11 12h3M18 12h3M27 12h3M34 12h3M43 12h1M50 12h3M59 12h3M4 13h1M8 13h1M11 13h1M20 13h1M27 13h1M36 13h1M39 13h1M43 13h1M52 13h1M59 13h1M4 14h1M7 14h1M9 14h3M20 14h1M23 14h2M27 14h1M36 14h3M40 14h1M43 14h1M52 14h1M55 14h2M59 14h1M4 15h3M20 15h3M25 15h3M41 15h3M52 15h3M57 15h3" />
<path stroke="#ffffff" d="M4 1h2M10 1h2M20 1h2M26 1h2M36 1h2M42 1h2M52 1h2M58 1h2M4 2h2M10 2h2M20 2h2M26 2h2M36 2h2M42 2h2M52 2h2M58 2h2M4 3h8M20 3h8M36 3h8M52 3h8M4 4h8M20 4h8M36 4h8M52 4h8M4 5h8M20 5h8M36 5h8M52 5h8M4 6h8M20 6h8M36 6h8M52 6h8" />
<path stroke="#00bcd4" d="M5 8h1M10 8h1M21 8h1M26 8h1M37 8h1M42 8h1M53 8h1M58 8h1M5 9h1M10 9h1M21 9h1M26 9h1M37 9h1M42 9h1M53 9h1M58 9h1M3 10h1M5 10h1M10 10h1M12 10h1M19 10h1M21 10h1M26 10h1M28 10h1M35 10h1M37 10h1M42 10h1M44 10h1M51 10h1M53 10h1M58 10h1M60 10h1M19 11h1M28 11h1M51 11h1M60 11h1" />
<path stroke="#4caf50" d="M6 8h4M22 8h4M38 8h4M54 8h4M6 9h4M22 9h4M38 9h4M54 9h4M6 10h4M22 10h4M38 10h4M54 10h4" />
<path stroke="#2196f3" d="M5 11h6M21 11h6M37 11h6M53 11h6M5 12h6M21 12h6M37 12h6M53 12h6M5 13h3M9 13h2M21 13h6M37 13h2M40 13h3M53 13h6M5 14h2M21 14h2M25 14h2M41 14h2M53 14h2M57 14h2" />
<path stroke="#ffccbc" d="M12 11h1M35 11h1" />
</svg>