<svg xmlns="http://www.w3.org/2000/svg" viewBox="0 -0.5 64 16" shape-rendering="crispEdges">
<metadata>Made with Pixels to Svg https://codepen.io/shshaw/pen/XbxvNj</metadata>
<path stroke="#000000" d="M4 0h2M10 0h2M20 0h2M26 0h2M36 0h2M42 0h2M52 0h2M58 0h2M3 1h1M6 1h1M9 1h1M12 1h1M19 1h1M22 1h1M25 1h1M28 1h1M35 1h1M38 1h1M41 1h1M44 1h1M51 1h1M54 1h1M57 1h1M60 1h1M3 2h1M6 2h4M12 2h1M19 2h1M22 2h4M28 2h1M35 2h1M38 2h4M44 2h1M51 2h1M54 2h4M60 2h1M3 3h1M12 3h1M19 3h1M28 3h1M35 3h1M44 3h1M51 3h1M60 3h1M3 4h1M5 4h1M7 4h1M12 4h1M19 4h1M21 4h1M23 4h1M28 4h1M35 4h1M37 4h1M39 4h1M44 4h1M51 4h1M53 4h1M55 4h1M60 4h1M3 5h1M12 5h1M19 5h1M28 5h1M35 5h1M44 5h1M51 5h1M60 5h1M3 6h1M12 6h1M19 6h1M28 6h1M35 6h1M44 6h1M51 6h1M60 6h1M4 7h8M20 7h8M36 7h8M52 7h8M4 8h1M10 8h1M20 8h1M26 8h1M36 8h1M42 8h1M52 8h1M58 8h1M3 9h2M10 9h2M19 9h2M26 9h2M36 9h1M42 9h2M51 9h2M58 9h2M2 10h1M4 10h1M10 10h1M12 10h1M18 10h1M20 10h1M26 10h1M28 10h1M35 10h2M41 10h1M43 10h1M50 10h1M52 10h1M58 10h1M60 10h1M1 11h1M3 11h2M10 11h2M13 11h1M18 11h1M20 11h1M26 11h1M28 11h1M35 11h2M40 11h1M43 11h1M50 11h1M52 11h1M58 11h1M60 11h1M1 12h2M4 12h1M10 12h1M12 12h2M18 12h3M26 12h3M36 12h1M41 12h2M50 12h3M58 12h3M4 13h1M7 13h1M10 13h1M20 13h1M23 13h1M26 13h1M36 13h1M39 13h1M42 13h1M52 13h1M55 13h1M58 13h1M4 14h1M6 14h1M9 14h1M20 14h1M22 14h1M24 14h1M26 14h1M35 14h1M38 14h1M40 14h1M42 14h1M52 14h1M54 14h1M56 14h1M58 14h1M4 15h5M20 15h3M24 15h3M36 15h2M40 15h3M52 15h3M56 15h3" />
<path stroke="#ffffff" d="M4 1h2M10 1h2M20 1h2M26 1h2M36 1h2M42 1h2M52 1h2M58 1h2M4 2h2M10 2h2M20 2h2M26 2h2M36 2h2M42 2h2M52 2h2M58 2h2M4 3h2M9 3h3M20 3h2M25 3h3M36 3h2M41 3h3M52 3h2M57 3h3M4 4h1M10 4h2M20 4h1M26 4h2M36 4h1M42 4h2M52 4h1M58 4h2M4 5h1M10 5h2M20 5h1M26 5h2M36 5h1M42 5h2M52 5h1M58 5h2M4 6h2M9 6h3M20 6h2M25 6h3M36 6h2M41 6h3M52 6h2M57 6h3" />
<path stroke="#ffab91" d="M6 3h3M22 3h3M38 3h3M54 3h3M6 4h1M8 4h2M22 4h1M24 4h2M38 4h1M40 4h2M54 4h1M56 4h2M5 5h5M21 5h5M37 5h5M53 5h5M6 6h3M22 6h3M38 6h3M54 6h3" />
<path stroke="#00bcd4" d="M5 8h5M21 8h5M37 8h5M53 8h5M5 9h5M21 9h5M37 9h5M53 9h5M3 10h1M5 10h5M11 10h1M19 10h1M21 10h5M27 10h1M37 10h4M42 10h1M51 10h1M53 10h5M59 10h1M2 11h1M12 11h1M19 11h1M27 11h1M41 11h2M51 11h1M59 11h1" />
<path stroke="#2196f3" d="M5 11h5M21 11h5M37 11h3M53 11h5M5 12h5M21 12h5M37 12h4M53 12h5M5 13h2M8 13h2M21 13h2M24 13h2M37 13h2M40 13h2M53 13h2M56 13h2M5 14h1M7 14h2M21 14h1M25 14h1M36 14h2M41 14h1M53 14h1M57 14h1" />
</svg>