<svg xmlns="http://www.w3.org/2000/svg" viewBox="0 -0.5 64 16" shape-rendering="crispEdges">
<metadata>Made with Pixels to Svg https://codepen.io/shshaw/pen/XbxvNj</metadata>
<path stroke="#000000" d="M4 0h2M10 0h2M20 0h2M26 0h2M36 0h2M42 0h2M52 0h2M58 0h2M3 1h1M6 1h1M9 1h1M12 1h1M19 1h1M22 1h1M25 1h1M28 1h1M35 1h1M38 1h1M41 1h1M44 1h1M51 1h1M54 1h1M57 1h1M60 1h1M3 2h1M6 2h4M12 2h1M19 2h1M22 2h4M28 2h1M35 2h1M38 2h4M44 2h1M51 2h1M54 2h4M60 2h1M3 3h1M12 3h1M19 3h1M28 3h1M35 3h1M44 3h1M51 3h1M60 3h1M3 4h1M8 4h1M10 4h1M12 4h1M19 4h1M24 4h1M26 4h1M28 4h1M35 4h1M40 4h1M42 4h1M44 4h1M51 4h1M56 4h1M58 4h1M60 4h1M3 5h1M12 5h1M19 5h1M28 5h1M35 5h1M44 5h1M51 5h1M60 5h1M3 6h1M12 6h1M19 6h1M28 6h1M35 6h1M44 6h1M51 6h1M60 6h1M4 7h8M20 7h8M36 7h8M52 7h8M5 8h1M11 8h1M21 8h1M27 8h1M37 8h1M43 8h1M53 8h1M59 8h1M4 9h2M11 9h2M20 9h2M27 9h1M36 9h2M43 9h2M52 9h2M59 9h2M3 10h1M5 10h1M11 10h1M13 10h1M20 10h1M22 10h1M27 10h2M35 10h1M37 10h1M43 10h1M45 10h1M51 10h1M53 10h1M59 10h1M61 10h1M3 11h1M5 11h1M11 11h1M13 11h1M20 11h1M23 11h1M27 11h2M35 11h1M37 11h1M43 11h1M45 11h1M50 11h1M52 11h2M59 11h2M62 11h1M3 12h3M11 12h3M21 12h2M27 12h1M35 12h3M43 12h3M50 12h2M53 12h1M59 12h1M61 12h2M5 13h1M8 13h1M11 13h1M21 13h1M24 13h1M27 13h1M37 13h1M40 13h1M43 13h1M53 13h1M56 13h1M59 13h1M5 14h1M7 14h1M9 14h1M11 14h1M21 14h1M23 14h1M25 14h1M28 14h1M37 14h1M39 14h1M41 14h1M43 14h1M54 14h1M57 14h1M59 14h1M5 15h3M9 15h3M21 15h3M26 15h2M37 15h3M41 15h3M55 15h5" />
<path stroke="#ffffff" d="M4 1h2M10 1h2M20 1h2M26 1h2M36 1h2M42 1h2M52 1h2M58 1h2M4 2h2M10 2h2M20 2h2M26 2h2M36 2h2M42 2h2M52 2h2M58 2h2M4 3h3M10 3h2M20 3h3M26 3h2M36 3h3M42 3h2M52 3h3M58 3h2M4 4h2M11 4h1M20 4h2M27 4h1M36 4h2M43 4h1M52 4h2M59 4h1M4 5h2M11 5h1M20 5h2M27 5h1M36 5h2M43 5h1M52 5h2M59 5h1M4 6h3M10 6h2M20 6h3M26 6h2M36 6h3M42 6h2M52 6h3M58 6h2" />
<path stroke="#ffab91" d="M7 3h3M23 3h3M39 3h3M55 3h3M6 4h2M9 4h1M22 4h2M25 4h1M38 4h2M41 4h1M54 4h2M57 4h1M6 5h5M22 5h5M38 5h5M54 5h5M7 6h3M23 6h3M39 6h3M55 6h3" />
<path stroke="#00bcd4" d="M6 8h5M22 8h5M38 8h5M54 8h5M6 9h5M22 9h5M38 9h5M54 9h5M4 10h1M6 10h5M12 10h1M21 10h1M23 10h4M36 10h1M38 10h5M44 10h1M52 10h1M54 10h5M60 10h1M4 11h1M12 11h1M21 11h2M36 11h1M44 11h1M51 11h1M61 11h1" />
<path stroke="#2196f3" d="M6 11h5M24 11h3M38 11h5M54 11h5M6 12h5M23 12h4M38 12h5M54 12h5M6 13h2M9 13h2M22 13h2M25 13h2M38 13h2M41 13h2M54 13h2M57 13h2M6 14h1M10 14h1M22 14h1M26 14h2M38 14h1M42 14h1M55 14h2M58 14h1" />
</svg>