<svg xmlns="http://www.w3.org/2000/svg" viewBox="0 -0.5 64 16" shape-rendering="crispEdges">
<metadata>Made with Pixels to Svg https://codepen.io/shshaw/pen/XbxvNj</metadata>
<path stroke="#000000" d="M4 0h2M10 0h2M20 0h2M26 0h2M36 0h2M42 0h2M52 0h2M58 0h2M3 1h1M6 1h1M9 1h1M12 1h1M19 1h1M22 1h1M25 1h1M28 1h1M35 1h1M38 1h1M41 1h1M44 1h1M51 1h1M54 1h1M57 1h1M60 1h1M3 2h1M6 2h4M12 2h1M19 2h1M22 2h4M28 2h1M35 2h1M38 2h4M44 2h1M51 2h1M54 2h4M60 2h1M3 3h1M12 3h1M19 3h1M28 3h1M35 3h1M44 3h1M51 3h1M60 3h1M3 4h1M6 4h1M9 4h1M12 4h1M19 4h1M22 4h1M25 4h1M28 4h1M35 4h1M38 4h1M41 4h1M44 4h1M51 4h1M54 4h1M57 4h1M60 4h1M3 5h1M12 5h1M19 5h1M28 5h1M35 5h1M44 5h1M51 5h1M60 5h1M3 6h1M12 6h1M19 6h1M28 6h1M35 6h1M44 6h1M51 6h1M60 6h1M4 7h8M20 7h8M36 7h8M52 7h8M4 8h1M11 8h1M20 8h1M27 8h1M36 8h1M43 8h1M52 8h1M59 8h1M3 9h2M11 9h2M19 9h2M27 9h2M35 9h2M43 9h2M51 9h2M59 9h2M2 10h1M4 10h1M11 10h1M13 10h1M18 10h1M20 10h1M27 10h1M29 10h1M34 10h1M36 10h1M43 10h1M45 10h1M50 10h1M52 10h1M59 10h1M61 10h1M2 11h1M4 11h1M11 11h1M13 11h1M18 11h1M20 11h1M27 11h3M34 11h1M36 11h1M43 11h1M45 11h1M50 11h3M59 11h1M61 11h1M2 12h3M11 12h3M18 12h3M27 12h1M34 12h3M43 12h3M52 12h1M59 12h3M4 13h1M11 13h1M20 13h1M24 13h1M27 13h1M36 13h1M43 13h1M52 13h1M55 13h1M59 13h1M4 14h1M7 14h2M11 14h1M20 14h1M23 14h1M25 14h3M36 14h1M39 14h2M43 14h1M52 14h3M56 14h1M59 14h1M4 15h3M9 15h3M20 15h3M36 15h3M41 15h3M57 15h3" />
<path stroke="#ffffff" d="M4 1h2M10 1h2M20 1h2M26 1h2M36 1h2M42 1h2M52 1h2M58 1h2M4 2h2M10 2h2M20 2h2M26 2h2M36 2h2M42 2h2M52 2h2M58 2h2M4 3h2M10 3h2M20 3h2M26 3h2M36 3h2M42 3h2M52 3h2M58 3h2M4 4h1M11 4h1M20 4h1M27 4h1M36 4h1M43 4h1M52 4h1M59 4h1M4 5h1M11 5h1M20 5h1M27 5h1M36 5h1M43 5h1M52 5h1M59 5h1M4 6h2M10 6h2M20 6h2M26 6h2M36 6h2M42 6h2M52 6h2M58 6h2" />
<path stroke="#ffab91" d="M6 3h4M22 3h4M38 3h4M54 3h4M5 4h1M7 4h2M10 4h1M21 4h1M23 4h2M26 4h1M37 4h1M39 4h2M42 4h1M53 4h1M55 4h2M58 4h1M5 5h6M21 5h6M37 5h6M53 5h6M6 6h4M22 6h4M38 6h4M54 6h4" />
<path stroke="#00bcd4" d="M5 8h6M21 8h6M37 8h6M53 8h6M5 9h6M21 9h6M37 9h6M53 9h6M3 10h1M5 10h6M12 10h1M19 10h1M21 10h6M28 10h1M35 10h1M37 10h6M44 10h1M51 10h1M53 10h6M60 10h1M3 11h1M12 11h1M35 11h1M44 11h1" />
<path stroke="#2196f3" d="M5 11h6M21 11h6M37 11h6M53 11h6M5 12h6M21 12h6M37 12h6M53 12h6M5 13h6M21 13h3M25 13h2M37 13h6M53 13h2M56 13h3M5 14h2M9 14h2M21 14h2M37 14h2M41 14h2M57 14h2" />
<path stroke="#ffccbc" d="M19 11h1M60 11h1" />
</svg>