<svg xmlns="http://www.w3.org/2000/svg" viewBox="0 -0.5 192 16" shape-rendering="crispEdges">
<metadata>Made with Pixels to Svg https://codepen.io/shshaw/pen/XbxvNj</metadata>
<path stroke="#000000" d="M4 0h2M10 0h2M3 1h1M6 1h1M9 1h1M12 1h1M20 1h2M26 1h2M3 2h1M6 2h4M12 2h1M19 2h1M22 2h1M25 2h1M28 2h1M36 2h2M42 2h2M3 3h1M12 3h1M19 3h1M22 3h4M28 3h1M35 3h1M38 3h1M41 3h1M44 3h1M52 3h2M58 3h2M3 4h1M6 4h1M9 4h1M12 4h1M19 4h1M28 4h1M35 4h1M38 4h4M44 4h1M51 4h1M54 4h1M57 4h1M60 4h1M68 4h2M74 4h2M3 5h1M12 5h1M19 5h1M22 5h1M25 5h1M28 5h1M35 5h1M44 5h1M51 5h1M54 5h4M60 5h1M67 5h1M70 5h1M73 5h1M76 5h1M84 5h2M90 5h2M3 6h1M12 6h1M19 6h1M28 6h1M35 6h1M38 6h1M41 6h1M44 6h1M51 6h1M60 6h1M67 6h1M70 6h4M76 6h1M83 6h1M86 6h1M89 6h1M92 6h1M100 6h2M106 6h2M4 7h8M19 7h1M28 7h1M35 7h1M44 7h1M51 7h1M54 7h1M57 7h1M60 7h1M67 7h1M76 7h1M83 7h1M86 7h4M92 7h1M99 7h1M102 7h1M105 7h1M108 7h1M2 8h1M4 8h1M11 8h1M13 8h1M20 8h8M35 8h1M44 8h1M51 8h1M60 8h1M67 8h1M70 8h1M73 8h1M76 8h1M83 8h1M92 8h1M99 8h1M102 8h4M108 8h1M116 8h2M122 8h2M1 9h1M3 9h2M11 9h2M14 9h1M20 9h1M27 9h1M36 9h8M51 9h1M60 9h1M67 9h1M76 9h1M83 9h1M86 9h1M89 9h1M92 9h1M99 9h1M108 9h1M115 9h1M118 9h1M121 9h1M124 9h1M2 10h1M4 10h1M11 10h1M13 10h1M17 10h4M27 10h4M34 10h1M36 10h1M43 10h1M45 10h1M52 10h8M67 10h1M76 10h1M83 10h1M92 10h1M99 10h1M102 10h1M105 10h1M108 10h1M115 10h1M118 10h4M124 10h1M3 11h2M11 11h2M17 11h1M20 11h1M27 11h1M30 11h1M33 11h1M35 11h2M43 11h2M46 11h1M52 11h1M59 11h1M68 11h8M83 11h1M92 11h1M99 11h1M108 11h1M115 11h1M124 11h1M132 11h2M138 11h2M4 12h1M11 12h1M17 12h4M27 12h4M34 12h1M36 12h1M43 12h1M45 12h1M49 12h4M59 12h4M66 12h1M68 12h1M75 12h1M77 12h1M84 12h8M99 12h1M108 12h1M115 12h1M118 12h1M121 12h1M124 12h1M131 12h1M134 12h1M137 12h1M140 12h1M4 13h1M11 13h1M20 13h1M27 13h1M35 13h2M43 13h2M49 13h1M52 13h1M59 13h1M62 13h1M65 13h1M67 13h2M75 13h2M78 13h1M84 13h1M91 13h1M100 13h8M115 13h1M124 13h1M131 13h1M134 13h4M140 13h1M4 14h1M7 14h2M11 14h1M20 14h1M27 14h1M36 14h1M43 14h1M49 14h4M59 14h4M66 14h1M68 14h1M75 14h1M77 14h1M81 14h4M91 14h4M98 14h1M100 14h1M107 14h1M109 14h1M115 14h1M124 14h1M131 14h1M140 14h1M148 14h2M154 14h2M4 15h3M9 15h3M20 15h1M23 15h2M27 15h1M36 15h1M43 15h1M52 15h1M59 15h1M67 15h2M75 15h2M81 15h1M84 15h1M91 15h1M94 15h1M97 15h1M99 15h2M107 15h2M110 15h1M116 15h8M131 15h1M134 15h1M137 15h1M140 15h1M147 15h1M150 15h1M153 15h1M156 15h1" />
<path stroke="#ffffff" d="M4 1h2M10 1h2M4 2h2M10 2h2M20 2h2M26 2h2M4 3h2M10 3h2M20 3h2M26 3h2M36 3h2M42 3h2M4 4h1M11 4h1M20 4h2M26 4h2M36 4h2M42 4h2M52 4h2M58 4h2M4 5h1M11 5h1M20 5h1M27 5h1M36 5h2M42 5h2M52 5h2M58 5h2M68 5h2M74 5h2M4 6h2M10 6h2M20 6h1M27 6h1M36 6h1M43 6h1M52 6h2M58 6h2M68 6h2M74 6h2M84 6h2M90 6h2M20 7h2M26 7h2M36 7h1M43 7h1M52 7h1M59 7h1M68 7h2M74 7h2M84 7h2M90 7h2M100 7h2M106 7h2M36 8h2M42 8h2M52 8h1M59 8h1M68 8h1M75 8h1M84 8h2M90 8h2M100 8h2M106 8h2M52 9h2M58 9h2M68 9h1M75 9h1M84 9h1M91 9h1M100 9h2M106 9h2M116 9h2M122 9h2M68 10h2M74 10h2M84 10h1M91 10h1M100 10h1M107 10h1M116 10h2M122 10h2M84 11h2M90 11h2M100 11h1M107 11h1M116 11h2M122 11h2M100 12h2M106 12h2M116 12h1M123 12h1M132 12h2M138 12h2M116 13h1M123 13h1M132 13h2M138 13h2M116 14h2M122 14h2M132 14h2M138 14h2M132 15h1M139 15h1M148 15h2M154 15h2" />
<path stroke="#ffab91" d="M6 3h4M5 4h1M7 4h2M10 4h1M22 4h4M5 5h6M21 5h1M23 5h2M26 5h1M38 5h4M6 6h1M9 6h1M21 6h6M37 6h1M39 6h2M42 6h1M54 6h4M22 7h1M25 7h1M37 7h6M53 7h1M55 7h2M58 7h1M70 7h4M38 8h1M41 8h1M53 8h6M69 8h1M71 8h2M74 8h1M86 8h4M54 9h1M57 9h1M69 9h6M85 9h1M87 9h2M90 9h1M102 9h4M70 10h1M73 10h1M85 10h6M101 10h1M103 10h2M106 10h1M86 11h1M89 11h1M101 11h6M118 11h4M102 12h1M105 12h1M117 12h1M119 12h2M122 12h1M117 13h6M118 14h1M121 14h1M134 14h4M133 15h1M135 15h2M138 15h1" />
<path stroke="#f44336" d="M7 6h2M23 7h2M39 8h2M55 9h2M71 10h2M87 11h2M103 12h2M119 14h2" />
<path stroke="#00bcd4" d="M5 8h6M2 9h1M5 9h6M13 9h1M21 9h6M3 10h1M5 10h6M12 10h1M21 10h6M37 10h6M18 11h2M21 11h6M28 11h2M34 11h1M37 11h6M45 11h1M53 11h6M35 12h1M37 12h6M44 12h1M53 12h6M69 12h6M50 13h2M53 13h6M60 13h2M66 13h1M69 13h6M77 13h1M85 13h6M67 14h1M69 14h6M76 14h1M85 14h6M101 14h6M82 15h2M85 15h6M92 15h2M98 15h1M101 15h6M109 15h1" />
<path stroke="#1a237e" d="M35 10h1M44 10h1M51 10h1M60 10h1M131 10h10M147 10h10M163 10h10M2 11h1M13 11h1M50 11h1M61 11h1M66 11h1M77 11h1M82 11h1M93 11h1M98 11h1M109 11h1M114 11h1M125 11h1M130 11h1M141 11h1M146 11h1M157 11h1M162 11h1M173 11h1M1 12h1M14 12h1M33 12h1M46 12h1M65 12h1M78 12h1M81 12h1M94 12h1M97 12h1M110 12h1M113 12h1M126 12h1M129 12h1M142 12h1M145 12h1M158 12h1M161 12h1M171 12h2M174 12h1M1 13h1M14 13h1M17 13h1M30 13h1M33 13h1M46 13h1M81 13h1M94 13h1M97 13h1M110 13h1M113 13h1M126 13h1M129 13h1M142 13h1M145 13h1M158 13h1M161 13h1M165 13h2M171 13h2M174 13h1M0 14h1M15 14h2M31 14h2M47 14h2M63 14h2M79 14h2M95 14h2M111 14h2M127 14h2M143 14h2M159 14h2M165 14h2M170 14h1M175 14h1M0 15h1M15 15h2M31 15h2M47 15h2M63 15h2M79 15h2M95 15h2M111 15h2M127 15h2M143 15h2M159 15h2M167 15h1M175 15h1" />
<path stroke="#2196f3" d="M5 11h6M5 12h6M21 12h6M5 13h6M21 13h6M37 13h6M5 14h2M9 14h2M21 14h6M37 14h6M53 14h6M21 15h2M25 15h2M37 15h6M53 15h6M69 15h6" />
<path stroke="#3f51b5" d="M51 11h1M60 11h1M67 11h1M76 11h1M131 11h1M134 11h4M140 11h1M147 11h10M163 11h10M2 12h2M12 12h2M67 12h1M76 12h1M82 12h2M92 12h2M98 12h1M109 12h1M114 12h1M125 12h1M130 12h1M135 12h2M141 12h1M146 12h12M162 12h9M173 12h1M2 13h2M12 13h2M18 13h2M28 13h2M34 13h1M45 13h1M82 13h2M92 13h2M98 13h2M108 13h2M114 13h1M125 13h1M130 13h1M141 13h1M146 13h12M162 13h3M167 13h4M173 13h1M1 14h3M12 14h3M17 14h3M28 14h3M33 14h3M44 14h3M65 14h1M78 14h1M97 14h1M99 14h1M108 14h1M110 14h1M113 14h2M125 14h2M129 14h2M141 14h2M145 14h3M150 14h4M156 14h3M161 14h4M167 14h3M171 14h4M1 15h3M7 15h2M12 15h3M17 15h3M28 15h3M33 15h3M44 15h3M49 15h3M60 15h3M65 15h2M77 15h2M113 15h3M124 15h3M129 15h2M141 15h2M145 15h2M151 15h2M157 15h2M161 15h6M168 15h7" />
</svg>