<svg width="64" height="16" viewBox="0 0 64 16" fill="none" xmlns="http://www.w3.org/2000/svg">
<path d="M5 2H3V3H2V5H1V10H2V12H3V13H5V14H10V13H12V12H13V10H14V5H13V3H12V2H10V1H5V2Z" fill="#FFFF00"/>
<path d="M21 14L26 14L26 13L28 13L28 12L29 12L29 10L30 10L30 5L29 5L29 3L28 3L28 2L26 2L26 4L25 4L25 7L24 7L24 10L23 10L23 7L22 7L22 4L21 4L21 2L19 2L19 3L18 3L18 5L17 5L17 10L18 10L18 12L19 12L19 13L21 13L21 14Z" fill="#FFFF00"/>
<path d="M37 14L42 14L42 13L44 13L44 12L45 12L45 10L46 10L46 5L44 5L44 6L43 6L43 7L42 7L42 8L41 8L41 9L40 9L40 10L39 10L39 9L38 9L38 8L37 8L37 7L36 7L36 6L35 6L35 5L33 5L33 10L34 10L34 12L35 12L35 13L37 13L37 14Z" fill="#FFFF00"/>
<path d="M53 14L58 14L58 13L60 13L60 12L61 12L61 10L62 10L62 5L61 5L61 3L60 3L60 2L58 2L58 4L57 4L57 7L56 7L56 10L55 10L55 7L54 7L54 4L53 4L53 2L51 2L51 3L50 3L50 5L49 5L49 10L50 10L50 12L51 12L51 13L53 13L53 14Z" fill="#FFFF00"/>
</svg>
