<svg xmlns="http://www.w3.org/2000/svg" viewBox="0 -0.5 224 248" shape-rendering="crispEdges">
<metadata>Made with Pixels to Svg https://codepen.io/shshaw/pen/XbxvNj</metadata>
<path stroke="#2121ff" d="M0 0h132M133 0h91M0 1h41M42 1h16M59 1h141M201 1h23M0 2h224M0 3h20M21 3h68M90 3h14M105 3h72M178 3h46M0 4h5M107 4h10M219 4h5M0 5h4M108 5h8M220 5h4M0 6h4M108 6h8M220 6h4M0 7h4M108 7h8M220 7h4M0 8h4M108 8h5M114 8h2M220 8h4M0 9h4M108 9h8M220 9h4M0 10h4M108 10h8M220 10h4M0 11h4M108 11h8M220 11h4M0 12h4M108 12h8M220 12h4M0 13h4M108 13h8M220 13h4M0 14h4M108 14h8M220 14h4M0 15h4M108 15h8M220 15h4M0 16h4M108 16h8M220 16h4M0 17h4M108 17h8M220 17h4M0 18h4M108 18h8M220 18h4M0 19h4M108 19h8M220 19h4M0 20h4M22 20h20M62 20h28M108 20h8M134 20h19M154 20h8M182 20h20M220 20h4M0 21h4M21 21h22M61 21h30M108 21h8M133 21h30M181 21h22M220 21h4M0 22h4M20 22h24M60 22h32M108 22h8M132 22h32M180 22h24M220 22h4M0 23h4M20 23h24M60 23h32M108 23h8M132 23h32M180 23h24M220 23h4M0 24h4M20 24h24M60 24h32M108 24h8M132 24h32M180 24h24M220 24h4M0 25h4M20 25h24M60 25h32M108 25h8M132 25h32M180 25h24M220 25h4M0 26h4M20 26h7M28 26h15M60 26h32M108 26h8M132 26h32M180 26h24M220 26h4M0 27h4M20 27h24M60 27h32M108 27h8M132 27h9M142 27h7M150 27h14M180 27h24M220 27h4M0 28h4M20 28h24M60 28h1M62 28h30M108 28h8M132 28h32M180 28h24M220 28h4M0 29h4M20 29h24M60 29h19M80 29h12M108 29h8M132 29h32M180 29h24M220 29h4M0 30h4M20 30h11M32 30h12M60 30h32M108 30h8M132 30h32M180 30h24M220 30h4M0 31h4M20 31h24M60 31h11M72 31h20M108 31h8M132 31h32M180 31h24M220 31h4M0 32h4M20 32h24M60 32h32M108 32h8M132 32h32M180 32h24M220 32h4M0 33h4M20 33h24M60 33h32M108 33h8M132 33h32M180 33h24M220 33h4M0 34h4M21 34h22M61 34h30M109 34h6M133 34h30M181 34h22M220 34h4M0 35h4M22 35h20M62 35h28M110 35h4M135 35h27M182 35h18M201 35h1M220 35h4M0 36h4M220 36h4M0 37h4M220 37h4M0 38h4M220 38h4M0 39h4M220 39h4M0 40h4M220 40h4M0 41h4M220 41h4M0 42h4M220 42h4M0 43h4M220 43h3M0 44h4M220 44h4M0 45h4M220 45h4M0 46h4M220 46h4M0 47h4M220 47h4M0 48h4M220 48h4M0 49h4M220 49h4M0 50h4M220 50h4M0 51h4M220 51h4M0 52h4M22 52h20M62 52h4M86 52h1M88 52h50M158 52h4M182 52h20M220 52h4M0 53h4M21 53h22M61 53h6M85 53h54M157 53h6M181 53h22M220 53h4M0 54h4M20 54h24M60 54h8M84 54h56M156 54h8M180 54h24M220 54h4M0 55h4M20 55h24M60 55h8M84 55h56M156 55h8M180 55h24M220 55h4M0 56h4M20 56h24M60 56h8M84 56h12M97 56h43M156 56h8M180 56h21M202 56h2M220 56h4M0 57h4M20 57h24M60 57h8M84 57h56M156 57h8M180 57h24M220 57h4M0 58h4M21 58h22M60 58h8M85 58h54M156 58h8M181 58h17M199 58h4M220 58h4M0 59h4M22 59h20M60 59h8M86 59h42M129 59h9M156 59h8M182 59h20M220 59h4M0 60h4M60 60h8M107 60h10M156 60h8M220 60h4M0 61h4M60 61h8M108 61h8M156 61h8M220 61h4M0 62h4M60 62h8M108 62h8M156 62h8M220 62h4M0 63h4M60 63h8M108 63h8M156 63h8M220 63h4M0 64h4M60 64h8M108 64h8M156 64h8M220 64h4M0 65h4M60 65h1M62 65h6M108 65h8M156 65h8M220 65h4M0 66h4M60 66h8M108 66h8M156 66h8M220 66h4M0 67h4M60 67h8M108 67h8M156 67h8M220 67h4M0 68h4M60 68h8M108 68h8M156 68h8M220 68h4M0 69h4M60 69h8M108 69h8M156 69h8M220 69h4M0 70h4M60 70h8M108 70h8M156 70h8M220 70h4M0 71h4M60 71h8M108 71h8M156 71h2M159 71h5M220 71h4M0 72h4M60 72h8M108 72h8M156 72h8M220 72h4M0 73h4M60 73h8M108 73h8M156 73h8M220 73h4M0 74h4M60 74h8M108 74h8M156 74h5M162 74h2M220 74h4M0 75h5M60 75h9M108 75h8M155 75h9M219 75h5M1 76h41M60 76h30M108 76h1M110 76h6M134 76h30M182 76h41M1 77h42M60 77h18M79 77h12M108 77h8M133 77h31M181 77h42M2 78h42M60 78h32M108 78h8M132 78h32M180 78h42M4 79h40M60 79h32M108 79h8M132 79h19M152 79h12M180 79h40M40 80h4M60 80h32M108 80h8M132 80h32M180 80h4M40 81h4M60 81h32M108 81h8M132 81h32M180 81h4M40 82h4M60 82h31M109 82h6M133 82h31M180 82h4M40 83h4M60 83h30M110 83h4M134 83h30M180 83h4M40 84h4M60 84h8M155 84h9M180 84h4M40 85h4M60 85h8M156 85h8M180 85h1M182 85h2M40 86h4M60 86h8M156 86h8M180 86h4M40 87h4M60 87h8M156 87h8M180 87h4M40 88h4M60 88h8M156 88h8M180 88h2M183 88h1M40 89h4M60 89h8M156 89h8M180 89h4M40 90h4M60 90h8M156 90h8M180 90h4M40 91h4M60 91h8M156 91h7M180 91h4M40 92h4M60 92h8M156 92h8M180 92h4M40 93h2M43 93h1M60 93h8M156 93h8M180 93h4M40 94h4M60 94h8M156 94h8M180 94h4M40 95h4M60 95h8M156 95h8M180 95h4M40 96h4M60 96h8M156 96h8M180 96h4M40 97h4M60 97h8M156 97h8M180 97h4M40 98h4M60 98h8M156 98h8M180 98h4M40 99h4M60 99h8M156 99h8M180 99h4M40 100h4M60 100h8M84 100h8M93 100h11M120 100h20M156 100h8M180 100h4M40 101h4M60 101h8M84 101h20M120 101h12M133 101h7M156 101h8M180 101h4M40 102h4M60 102h8M84 102h20M120 102h20M156 102h8M180 102h4M40 103h4M60 103h8M84 103h20M120 103h20M156 103h8M180 103h4M0 104h44M60 104h8M84 104h4M136 104h4M156 104h8M180 104h44M0 105h44M60 105h8M84 105h4M136 105h4M156 105h8M180 105h44M0 106h43M61 106h6M84 106h4M136 106h4M157 106h6M181 106h43M0 107h42M62 107h4M84 107h4M136 107h4M158 107h4M182 107h42M84 108h4M136 108h4M84 109h4M136 109h2M139 109h1M84 110h4M136 110h4M84 111h4M136 111h4M84 112h4M136 112h4M84 113h4M136 113h4M84 114h4M136 114h4M84 115h4M136 115h4M84 116h4M136 116h4M84 117h4M136 117h4M84 118h4M136 118h4M84 119h4M136 119h4M84 120h4M136 120h4M84 121h4M136 121h2M139 121h1M84 122h4M136 122h4M84 123h4M136 123h4M0 124h25M26 124h16M62 124h4M84 124h4M136 124h4M158 124h4M182 124h42M0 125h43M61 125h6M84 125h4M136 125h4M157 125h6M181 125h20M202 125h22M0 126h44M60 126h8M84 126h4M136 126h4M156 126h8M180 126h44M0 127h44M60 127h8M84 127h4M136 127h4M156 127h8M180 127h44M40 128h4M60 128h8M84 128h56M156 128h8M180 128h4M40 129h4M60 129h8M84 129h56M156 129h8M180 129h4M40 130h4M60 130h8M84 130h56M156 130h8M180 130h4M40 131h4M60 131h8M84 131h56M156 131h8M180 131h4M40 132h4M60 132h8M156 132h8M180 132h4M40 133h4M60 133h8M156 133h8M180 133h4M40 134h4M60 134h8M156 134h8M180 134h4M40 135h4M60 135h8M156 135h8M180 135h4M40 136h4M60 136h8M156 136h8M180 136h4M40 137h4M60 137h8M156 137h8M180 137h4M40 138h4M60 138h8M156 138h8M180 138h4M40 139h4M60 139h8M156 139h8M180 139h4M40 140h4M60 140h8M156 140h8M180 140h4M40 141h4M60 141h8M156 141h8M180 141h4M40 142h4M60 142h8M156 142h8M180 142h4M40 143h4M60 143h8M156 143h8M180 143h4M40 144h4M60 144h8M156 144h8M180 144h4M40 145h4M60 145h8M156 145h8M180 145h4M40 146h4M60 146h8M156 146h8M180 146h4M40 147h4M60 147h8M156 147h8M180 147h4M40 148h4M60 148h8M86 148h52M156 148h8M180 148h4M40 149h4M60 149h8M85 149h54M156 149h8M180 149h4M40 150h4M60 150h8M84 150h56M156 150h8M180 150h4M40 151h4M60 151h8M84 151h4M89 151h51M156 151h8M180 151h4M4 152h40M60 152h8M84 152h16M101 152h39M156 152h8M180 152h40M2 153h42M60 153h6M67 153h1M84 153h56M156 153h8M180 153h42M1 154h42M61 154h6M85 154h54M157 154h6M181 154h42M1 155h41M62 155h4M86 155h50M137 155h1M158 155h4M182 155h41M0 156h5M107 156h10M219 156h5M0 157h4M108 157h8M220 157h4M0 158h4M108 158h8M220 158h4M0 159h4M108 159h8M220 159h4M0 160h4M108 160h8M220 160h4M0 161h4M108 161h8M220 161h4M0 162h4M108 162h8M220 162h4M0 163h4M108 163h8M220 163h4M0 164h4M108 164h8M220 164h4M0 165h4M108 165h8M220 165h4M0 166h4M108 166h8M220 166h4M0 167h4M108 167h8M220 167h4M0 168h4M108 168h8M220 168h4M0 169h4M108 169h8M220 169h4M0 170h4M108 170h8M220 170h4M0 171h4M108 171h8M220 171h4M0 172h3M22 172h20M62 172h28M108 172h8M134 172h28M182 172h20M220 172h4M0 173h4M21 173h22M61 173h30M108 173h8M133 173h30M181 173h22M220 173h4M0 174h4M20 174h24M60 174h32M108 174h8M132 174h32M180 174h24M220 174h4M0 175h4M20 175h24M60 175h32M108 175h8M132 175h32M180 175h24M220 175h4M0 176h4M20 176h24M60 176h32M108 176h8M132 176h32M180 176h24M220 176h4M0 177h4M20 177h24M60 177h32M108 177h8M132 177h32M180 177h17M198 177h6M220 177h4M0 178h4M21 178h23M61 178h30M109 178h6M133 178h30M180 178h23M220 178h4M0 179h4M22 179h22M62 179h28M110 179h4M134 179h28M180 179h6M187 179h15M220 179h4M0 180h4M35 180h9M180 180h9M220 180h4M0 181h4M36 181h8M180 181h8M220 181h4M0 182h4M36 182h8M180 182h8M220 182h4M0 183h4M36 183h8M180 183h8M220 183h4M0 184h4M36 184h8M180 184h8M220 184h4M0 185h4M36 185h8M180 185h8M220 185h4M0 186h4M36 186h8M180 186h8M220 186h4M0 187h4M36 187h8M180 187h8M220 187h4M0 188h4M36 188h8M180 188h8M220 188h4M0 189h4M36 189h8M180 189h8M220 189h4M0 190h4M36 190h8M180 190h8M220 190h4M0 191h4M36 191h8M180 191h8M220 191h4M0 192h4M36 192h8M180 192h8M220 192h4M0 193h1M2 193h2M36 193h8M180 193h8M220 193h4M0 194h4M36 194h8M180 194h8M220 194h4M0 195h5M36 195h8M180 195h8M220 195h4M0 196h18M36 196h8M62 196h4M86 196h52M158 196h4M180 196h8M206 196h18M0 197h19M36 197h8M61 197h6M85 197h46M132 197h7M157 197h6M180 197h8M205 197h19M0 198h4M5 198h15M36 198h8M60 198h8M84 198h56M156 198h8M180 198h8M204 198h20M0 199h20M36 199h8M60 199h8M84 199h56M156 199h8M180 199h8M204 199h20M0 200h20M36 200h8M60 200h8M84 200h25M110 200h30M156 200h8M180 200h4M185 200h3M204 200h20M0 201h5M6 201h14M36 201h8M60 201h8M84 201h56M156 201h8M180 201h8M204 201h20M0 202h19M37 202h6M60 202h8M85 202h54M156 202h8M181 202h6M205 202h19M0 203h18M38 203h4M60 203h8M86 203h52M156 203h8M182 203h4M206 203h18M0 204h5M60 204h8M107 204h10M156 204h8M219 204h5M0 205h4M60 205h8M108 205h8M156 205h8M220 205h4M0 206h4M60 206h8M108 206h8M156 206h8M220 206h4M0 207h4M60 207h8M108 207h8M156 207h2M159 207h5M220 207h4M0 208h4M60 208h8M108 208h8M156 208h8M220 208h4M0 209h4M60 209h8M108 209h8M156 209h8M220 209h4M0 210h4M60 210h8M108 210h8M156 210h8M220 210h4M0 211h4M60 211h8M108 211h8M156 211h8M220 211h4M0 212h4M60 212h8M108 212h8M156 212h8M220 212h4M0 213h4M60 213h8M108 213h8M156 213h8M220 213h4M0 214h4M60 214h8M108 214h8M156 214h8M220 214h4M0 215h4M60 215h8M108 215h8M156 215h8M220 215h4M0 216h4M60 216h8M108 216h8M156 216h8M220 216h4M0 217h4M60 217h8M108 217h8M156 217h8M220 217h4M0 218h4M60 218h8M108 218h8M156 218h8M220 218h4M0 219h4M59 219h2M62 219h7M108 219h8M155 219h10M220 219h4M0 220h4M22 220h68M108 220h8M134 220h68M220 220h4M0 221h4M21 221h21M43 221h48M108 221h8M133 221h70M221 221h3M0 222h4M20 222h72M108 222h8M132 222h72M220 222h4M0 223h4M20 223h72M108 223h8M132 223h18M151 223h53M220 223h4M0 224h4M20 224h18M39 224h53M108 224h8M132 224h72M220 224h4M0 225h4M20 225h72M108 225h8M132 225h72M220 225h4M0 226h4M21 226h70M109 226h4M114 226h1M133 226h70M220 226h4M0 227h4M22 227h27M50 227h40M110 227h4M134 227h57M192 227h10M220 227h4M0 228h4M220 228h4M0 229h4M220 229h4M0 230h4M220 230h4M0 231h4M220 231h4M0 232h4M220 232h4M0 233h4M220 233h4M0 234h4M220 234h4M0 235h4M220 235h4M0 236h4M220 236h4M0 237h4M220 237h4M0 238h4M220 238h4M0 239h4M220 239h4M0 240h4M220 240h4M0 241h4M220 241h4M0 242h4M220 242h4M0 243h5M219 243h5M0 244h224M0 245h176M177 245h47M0 246h9M10 246h76M87 246h137M0 247h43M44 247h180" />
<path stroke="#2120ff" d="M132 0h1M200 1h1M104 3h1M27 26h1M79 29h1M71 31h1M158 71h1M78 77h1M182 88h1M132 101h1M201 125h1M88 151h1M136 155h1M3 172h1M109 200h1M184 200h1M5 201h1M158 207h1M61 219h1M42 221h1M220 221h1M9 246h1M43 247h1" />
<path stroke="#2021ff" d="M41 1h1M177 3h1M113 8h1M153 20h1M141 27h1M149 27h1M61 28h1M31 30h1M134 35h1M200 35h1M223 43h1M198 58h1M161 74h1M109 76h1M68 84h1M42 93h1M138 109h1M25 124h1M186 179h1M1 193h1M219 195h1M131 197h1M4 198h1M150 223h1M113 226h1M176 245h1" />
<path stroke="#2121fe" d="M58 1h1M20 3h1M89 3h1M43 26h1M87 52h1M96 56h1M201 56h1M128 59h1M61 65h1M151 79h1M181 85h1M163 91h1M92 100h1M138 121h1M100 152h1M66 153h1M197 177h1M38 224h1M49 227h1M191 227h1M86 246h1" />
<path stroke="#b7fff1" d="M5 4h102M117 4h75M193 4h26M4 5h47M52 5h56M116 5h104M4 6h104M116 6h93M210 6h10M4 7h104M116 7h79M196 7h24M4 8h104M116 8h90M207 8h13M4 9h40M45 9h63M116 9h45M162 9h58M4 10h72M77 10h26M104 10h4M116 10h104M4 11h104M116 11h104M4 12h94M99 12h9M116 12h104M4 13h34M39 13h43M83 13h25M116 13h104M4 14h104M116 14h104M4 15h55M60 15h48M116 15h41M158 15h8M167 15h53M4 16h104M116 16h104M4 17h104M116 17h1M118 17h102M4 18h51M56 18h52M116 18h104M4 19h37M42 19h66M116 19h104M4 20h18M42 20h20M90 20h18M116 20h18M162 20h20M202 20h18M4 21h17M43 21h8M52 21h9M91 21h17M116 21h17M163 21h18M203 21h16M4 22h16M44 22h16M93 22h15M116 22h16M164 22h16M204 22h16M4 23h16M44 23h16M92 23h16M116 23h16M164 23h16M204 23h16M4 24h16M44 24h16M92 24h16M116 24h16M164 24h15M204 24h16M4 25h16M44 25h16M92 25h16M116 25h16M164 25h16M204 25h16M4 26h16M44 26h16M92 26h16M116 26h16M164 26h16M204 26h16M4 27h16M44 27h16M92 27h16M116 27h9M126 27h6M164 27h16M204 27h16M4 28h16M44 28h4M49 28h11M92 28h16M116 28h16M164 28h16M204 28h16M4 29h13M18 29h2M44 29h16M92 29h7M100 29h8M116 29h6M123 29h9M164 29h16M204 29h16M4 30h16M44 30h16M92 30h16M116 30h16M164 30h14M179 30h1M204 30h16M4 31h11M16 31h4M44 31h16M92 31h16M116 31h16M164 31h16M204 31h16M4 32h16M44 32h16M92 32h16M116 32h16M164 32h16M204 32h16M4 33h16M44 33h16M92 33h16M116 33h16M164 33h16M204 33h16M4 34h17M43 34h18M91 34h18M115 34h18M163 34h12M176 34h5M203 34h17M4 35h12M17 35h5M42 35h20M90 35h20M114 35h20M162 35h20M202 35h15M218 35h2M4 36h166M171 36h5M177 36h43M4 37h76M81 37h139M4 38h86M91 38h129M4 39h188M193 39h27M4 40h185M190 40h30M4 41h148M153 41h38M192 41h28M4 42h216M4 43h6M11 43h209M4 44h87M92 44h30M123 44h10M134 44h51M186 44h34M4 45h102M107 45h113M4 46h60M65 46h155M4 47h79M84 47h136M4 48h12M17 48h203M4 49h174M179 49h7M187 49h33M4 50h12M17 50h177M195 50h25M4 51h216M4 52h18M42 52h13M56 52h6M66 52h20M138 52h20M162 52h20M202 52h18M4 53h17M43 53h18M67 53h18M139 53h18M163 53h18M203 53h17M4 54h16M44 54h16M68 54h16M140 54h16M164 54h6M171 54h5M177 54h3M204 54h1M206 54h14M4 55h16M44 55h16M68 55h16M140 55h16M164 55h16M204 55h16M4 56h16M44 56h16M68 56h16M140 56h16M164 56h16M204 56h16M4 57h16M44 57h16M68 57h16M140 57h16M164 57h16M204 57h8M213 57h7M4 58h17M43 58h17M68 58h17M139 58h17M164 58h17M203 58h17M4 59h18M42 59h18M68 59h18M138 59h18M164 59h18M202 59h18M4 60h56M68 60h9M78 60h29M117 60h39M164 60h56M4 61h56M68 61h40M116 61h40M164 61h41M206 61h14M4 62h8M13 62h17M31 62h29M68 62h40M116 62h27M144 62h12M164 62h56M4 63h6M11 63h49M68 63h40M116 63h40M164 63h56M4 64h24M29 64h22M52 64h8M68 64h40M116 64h36M153 64h3M164 64h35M200 64h20M4 65h56M68 65h40M116 65h40M164 65h7M172 65h48M4 66h33M38 66h22M68 66h40M116 66h40M164 66h56M4 67h56M68 67h40M116 67h40M164 67h56M4 68h22M27 68h33M68 68h40M116 68h40M164 68h47M212 68h8M4 69h8M14 69h46M68 69h40M116 69h11M128 69h28M164 69h3M168 69h52M4 70h39M44 70h16M68 70h40M116 70h40M164 70h8M173 70h47M4 71h56M68 71h40M116 71h40M164 71h56M4 72h56M68 72h40M116 72h33M150 72h6M164 72h56M4 73h56M68 73h40M116 73h12M129 73h27M164 73h56M4 74h56M68 74h40M116 74h40M164 74h56M5 75h55M69 75h39M116 75h39M164 75h17M182 75h21M204 75h15M0 76h1M42 76h18M90 76h18M116 76h9M126 76h4M131 76h3M164 76h18M223 76h1M0 77h1M43 77h17M91 77h17M116 77h17M164 77h17M223 77h1M0 78h2M44 78h16M92 78h16M116 78h16M164 78h16M222 78h2M0 79h4M44 79h1M46 79h14M92 79h16M116 79h16M164 79h16M220 79h4M0 80h40M44 80h16M92 80h16M116 80h16M164 80h16M184 80h40M0 81h40M44 81h16M92 81h16M116 81h16M164 81h2M167 81h13M184 81h35M220 81h4M0 82h40M44 82h16M91 82h18M115 82h18M164 82h16M184 82h40M0 83h40M44 83h16M90 83h20M114 83h20M164 83h16M184 83h40M0 84h40M44 84h16M69 84h3M73 84h82M164 84h16M184 84h22M207 84h17M0 85h40M44 85h16M68 85h88M164 85h16M184 85h40M0 86h40M44 86h16M68 86h10M79 86h10M90 86h66M164 86h16M184 86h7M192 86h14M207 86h17M0 87h37M38 87h2M44 87h16M68 87h88M164 87h16M184 87h22M207 87h16M0 88h40M44 88h16M68 88h9M78 88h21M100 88h56M164 88h16M184 88h40M0 89h40M44 89h16M68 89h88M164 89h16M184 89h40M0 90h40M44 90h16M68 90h70M139 90h17M164 90h16M184 90h40M0 91h40M44 91h16M68 91h88M164 91h9M174 91h6M184 91h40M0 92h40M44 92h12M57 92h3M68 92h58M127 92h2M130 92h26M164 92h16M184 92h40M0 93h40M44 93h16M68 93h88M164 93h16M184 93h40M0 94h40M44 94h16M68 94h88M164 94h16M184 94h40M0 95h40M44 95h16M68 95h88M164 95h16M184 95h40M0 96h40M44 96h16M68 96h30M99 96h13M113 96h43M164 96h16M184 96h40M0 97h40M44 97h16M68 97h88M164 97h16M184 97h10M195 97h29M0 98h40M44 98h16M68 98h45M114 98h42M164 98h16M184 98h40M0 99h40M44 99h16M68 99h88M164 99h16M184 99h40M0 100h33M34 100h6M44 100h16M68 100h16M104 100h3M108 100h12M140 100h16M164 100h16M184 100h13M198 100h22M221 100h3M0 101h40M44 101h16M68 101h16M140 101h16M164 101h16M184 101h40M0 102h40M44 102h16M68 102h7M76 102h8M140 102h16M164 102h16M184 102h40M0 103h40M44 103h16M68 103h3M72 103h12M104 103h16M140 103h16M164 103h16M184 103h40M44 104h16M68 104h16M88 104h22M111 104h25M140 104h16M164 104h16M44 105h16M68 105h16M88 105h13M102 105h34M140 105h16M164 105h16M43 106h18M67 106h17M88 106h48M140 106h17M163 106h18M42 107h20M66 107h18M88 107h48M140 107h18M162 107h20M0 108h84M88 108h48M140 108h71M212 108h12M0 109h84M88 109h40M129 109h7M140 109h84M0 110h84M88 110h48M140 110h9M150 110h52M203 110h21M0 111h51M52 111h32M88 111h48M140 111h84M0 112h19M20 112h64M88 112h48M140 112h30M171 112h53M0 113h52M53 113h31M88 113h46M135 113h1M140 113h84M0 114h20M21 114h63M88 114h48M140 114h84M0 115h84M88 115h48M140 115h60M201 115h23M0 116h84M88 116h48M140 116h84M0 117h34M35 117h49M88 117h48M140 117h84M0 118h84M88 118h48M141 118h83M0 119h32M33 119h51M88 119h48M140 119h84M0 120h3M4 120h80M88 120h48M140 120h84M0 121h84M88 121h48M140 121h84M0 122h84M88 122h48M140 122h60M201 122h23M0 123h84M88 123h48M140 123h84M42 124h20M66 124h18M88 124h48M140 124h18M162 124h20M43 125h18M67 125h17M88 125h48M140 125h16M163 125h1M165 125h16M44 126h16M68 126h16M88 126h8M97 126h39M140 126h16M164 126h16M44 127h16M68 127h16M88 127h48M140 127h16M164 127h16M0 128h40M44 128h12M57 128h3M68 128h16M140 128h16M164 128h16M184 128h40M0 129h40M44 129h16M68 129h12M81 129h3M140 129h16M164 129h11M176 129h4M184 129h40M0 130h40M44 130h16M68 130h16M140 130h16M164 130h16M184 130h40M0 131h40M44 131h16M68 131h16M140 131h16M164 131h16M184 131h40M0 132h40M44 132h16M68 132h88M164 132h16M184 132h40M0 133h40M44 133h16M68 133h88M164 133h16M184 133h40M0 134h40M44 134h16M68 134h81M150 134h6M164 134h16M184 134h40M0 135h40M44 135h16M68 135h46M115 135h41M164 135h16M184 135h40M0 136h40M44 136h1M46 136h14M68 136h88M164 136h16M184 136h40M0 137h40M44 137h16M68 137h88M164 137h16M184 137h40M0 138h24M25 138h15M44 138h16M68 138h83M152 138h4M164 138h16M184 138h40M0 139h30M31 139h9M44 139h16M68 139h79M148 139h8M164 139h16M184 139h40M0 140h40M44 140h16M68 140h18M87 140h23M111 140h45M164 140h16M184 140h40M0 141h23M24 141h16M44 141h16M68 141h19M88 141h68M164 141h15M184 141h28M213 141h7M221 141h3M0 142h25M26 142h14M44 142h16M68 142h88M164 142h16M184 142h40M0 143h40M44 143h16M68 143h61M130 143h26M164 143h16M184 143h40M0 144h40M44 144h16M68 144h88M164 144h16M184 144h40M0 145h40M44 145h16M68 145h88M164 145h16M184 145h39M0 146h40M44 146h16M68 146h88M164 146h16M184 146h40M0 147h32M33 147h5M39 147h1M44 147h16M68 147h88M164 147h16M184 147h40M0 148h40M44 148h16M68 148h18M138 148h18M164 148h16M184 148h40M0 149h40M44 149h16M68 149h17M139 149h17M164 149h16M184 149h40M0 150h40M44 150h16M68 150h16M140 150h16M164 150h16M184 150h40M0 151h40M44 151h16M68 151h16M140 151h16M164 151h16M184 151h40M0 152h4M44 152h16M68 152h16M140 152h16M164 152h16M220 152h4M0 153h2M44 153h16M68 153h16M140 153h16M164 153h16M222 153h2M0 154h1M43 154h18M67 154h18M139 154h18M163 154h18M223 154h1M0 155h1M42 155h20M66 155h20M138 155h20M162 155h20M223 155h1M5 156h71M77 156h22M101 156h6M117 156h102M4 157h22M27 157h34M62 157h46M116 157h104M4 158h104M116 158h55M172 158h23M196 158h24M4 159h74M79 159h29M116 159h75M192 159h28M4 160h104M116 160h54M171 160h49M4 161h75M80 161h28M116 161h104M4 162h104M116 162h35M152 162h68M4 163h104M116 163h99M216 163h4M4 164h65M70 164h38M116 164h104M4 165h104M116 165h104M4 166h104M116 166h44M161 166h59M4 167h99M104 167h4M116 167h104M4 168h69M74 168h34M116 168h29M146 168h74M4 169h104M116 169h41M158 169h62M4 170h104M116 170h77M194 170h11M206 170h14M4 171h104M116 171h104M4 172h18M42 172h3M46 172h10M57 172h5M90 172h3M94 172h14M116 172h18M162 172h20M202 172h18M4 173h17M43 173h18M91 173h17M116 173h17M163 173h18M203 173h17M4 174h16M44 174h16M92 174h14M107 174h1M116 174h16M164 174h16M204 174h16M4 175h16M44 175h16M92 175h16M116 175h16M164 175h16M204 175h16M4 176h16M44 176h16M92 176h16M116 176h16M164 176h16M204 176h16M4 177h16M44 177h16M92 177h16M116 177h16M164 177h14M179 177h1M204 177h16M4 178h17M44 178h17M91 178h18M115 178h18M163 178h17M203 178h17M4 179h18M44 179h18M90 179h20M114 179h20M162 179h18M202 179h18M4 180h31M44 180h135M189 180h31M4 181h32M44 181h77M122 181h58M188 181h32M4 182h32M44 182h5M50 182h130M188 182h32M4 183h28M33 183h3M44 183h136M188 183h32M4 184h32M44 184h69M114 184h66M188 184h29M218 184h2M4 185h32M44 185h136M188 185h32M4 186h32M44 186h136M188 186h24M213 186h7M4 187h32M44 187h136M188 187h32M4 188h32M44 188h136M188 188h32M4 189h32M44 189h136M188 189h32M4 190h32M44 190h109M154 190h26M188 190h32M4 191h32M44 191h41M86 191h94M188 191h32M4 192h18M23 192h13M44 192h136M188 192h32M4 193h32M44 193h136M188 193h32M4 194h32M44 194h126M171 194h9M188 194h32M5 195h31M44 195h32M77 195h103M188 195h31M18 196h18M44 196h18M66 196h20M138 196h20M162 196h18M188 196h18M19 197h17M44 197h17M67 197h18M139 197h18M163 197h17M188 197h17M20 198h16M44 198h16M68 198h16M140 198h16M164 198h16M188 198h16M20 199h16M44 199h16M68 199h16M140 199h16M164 199h16M188 199h16M20 200h16M44 200h16M68 200h16M140 200h16M164 200h16M188 200h16M20 201h16M44 201h16M68 201h16M140 201h16M164 201h16M188 201h16M19 202h18M43 202h17M68 202h17M139 202h17M164 202h17M187 202h18M18 203h20M42 203h18M68 203h18M138 203h18M164 203h18M186 203h20M5 204h55M68 204h39M117 204h39M164 204h55M4 205h56M68 205h7M76 205h32M116 205h33M150 205h6M164 205h55M4 206h56M68 206h40M116 206h27M144 206h12M164 206h56M4 207h56M68 207h40M116 207h40M164 207h56M4 208h56M68 208h40M116 208h40M164 208h56M4 209h50M55 209h5M68 209h2M71 209h37M116 209h40M164 209h56M4 210h56M68 210h40M116 210h24M141 210h15M164 210h56M4 211h56M68 211h14M83 211h25M116 211h40M164 211h56M4 212h56M68 212h40M116 212h40M164 212h5M170 212h42M213 212h7M4 213h56M68 213h40M116 213h40M164 213h56M4 214h56M68 214h40M116 214h40M164 214h56M4 215h56M68 215h40M116 215h40M164 215h56M4 216h38M43 216h17M68 216h40M116 216h2M119 216h37M164 216h56M4 217h56M68 217h40M116 217h40M164 217h56M4 218h56M68 218h11M80 218h28M116 218h40M164 218h56M4 219h55M69 219h39M116 219h39M165 219h55M4 220h7M12 220h10M90 220h18M116 220h18M202 220h18M4 221h17M91 221h17M116 221h17M203 221h17M4 222h16M92 222h16M116 222h16M204 222h14M219 222h1M4 223h16M92 223h16M116 223h16M204 223h16M4 224h16M92 224h16M116 224h2M119 224h13M204 224h16M4 225h16M92 225h16M116 225h16M204 225h16M4 226h17M91 226h14M106 226h3M115 226h18M203 226h17M4 227h18M90 227h20M114 227h20M202 227h18M4 228h14M19 228h98M118 228h29M148 228h14M163 228h57M4 229h216M4 230h216M4 231h216M4 232h165M170 232h50M4 233h17M22 233h12M35 233h4M40 233h161M202 233h18M4 234h69M74 234h146M4 235h183M188 235h32M4 236h125M130 236h90M4 237h52M57 237h150M208 237h12M4 238h181M186 238h34M4 239h17M22 239h72M95 239h125M4 240h3M8 240h76M85 240h135M4 241h32M37 241h183M4 242h211M216 242h4M5 243h124M130 243h89" />
<path stroke="#b7fff0" d="M192 4h1M195 7h1M44 9h1M161 9h1M82 13h1M122 29h1M178 30h1M217 35h1M176 36h1M192 39h1M178 49h1M176 54h1M77 60h1M205 61h1M30 62h1M28 64h1M130 76h1M45 79h1M219 81h1M206 84h1M89 86h1M77 88h1M138 90h1M56 92h1M126 92h1M98 96h1M197 100h1M71 103h1M211 108h1M51 111h1M170 112h1M52 113h1M200 115h1M140 118h1M156 125h1M164 125h1M24 138h1M30 139h1M110 140h1M220 141h1M32 147h1M191 159h1M151 162h1M215 163h1M103 167h1M73 168h1M205 170h1M56 172h1M106 174h1M178 177h1M121 181h1M113 184h1M153 190h1M170 194h1M75 205h1M149 205h1M143 206h1M140 210h1M42 216h1M105 226h1M117 228h1M147 228h1M21 233h1M73 234h1M129 236h1M207 237h1M94 239h1M36 241h1M215 242h1" />
<path stroke="#b7fef1" d="M51 5h1M76 10h1M38 13h1M59 15h1M157 15h1M166 15h1M219 21h1M179 24h1M48 28h1M15 31h1M16 35h1M170 36h1M80 37h1M90 38h1M10 43h1M122 44h1M133 44h1M185 44h1M106 45h1M64 46h1M212 57h1M12 62h1M51 64h1M199 64h1M12 69h1M127 69h1M172 70h1M149 72h1M128 73h1M181 75h1M203 75h1M125 76h1M191 86h1M206 86h1M223 87h1M173 91h1M112 96h1M33 100h1M107 100h1M220 100h1M128 109h1M19 112h1M32 119h1M96 126h1M56 128h1M149 134h1M114 135h1M45 136h1M23 141h1M87 141h1M25 142h1M129 143h1M223 145h1M100 156h1M26 157h1M171 158h1M195 158h1M78 159h1M170 160h1M145 168h1M157 169h1M193 170h1M93 172h1M49 182h1M32 183h1M85 191h1M76 195h1M54 209h1M70 209h1M212 212h1M79 218h1M118 224h1M162 228h1M169 232h1M34 233h1M201 233h1M56 237h1M185 238h1M7 240h1M129 243h1" />
<path stroke="#b6fff1" d="M209 6h1M206 8h1M103 10h1M98 12h1M117 17h1M55 18h1M41 19h1M51 21h1M92 22h1M125 27h1M17 29h1M99 29h1M175 34h1M189 40h1M152 41h1M191 41h1M83 47h1M16 48h1M186 49h1M16 50h1M194 50h1M55 52h1M170 54h1M205 54h1M143 62h1M10 63h1M152 64h1M171 65h1M37 66h1M26 68h1M211 68h1M13 69h1M167 69h1M43 70h1M166 81h1M72 84h1M78 86h1M37 87h1M206 87h1M99 88h1M129 92h1M194 97h1M113 98h1M75 102h1M110 104h1M101 105h1M149 110h1M202 110h1M134 113h1M20 114h1M34 117h1M3 120h1M200 122h1M80 129h1M175 129h1M151 138h1M147 139h1M86 140h1M179 141h1M212 141h1M38 147h1M76 156h1M99 156h1M61 157h1M79 161h1M69 164h1M160 166h1M45 172h1M179 180h1M217 184h1M212 186h1M22 192h1M219 205h1M82 211h1M169 212h1M118 216h1M11 220h1M218 222h1M18 228h1M39 233h1M187 235h1M21 239h1M84 240h1" />
<path stroke="#b6fff0" d="M91 44h1" />
<path stroke="#fcb5ff" d="M104 101h16M104 102h16" />
</svg>