<svg width="48" height="16" viewBox="0 0 48 16" fill="none" xmlns="http://www.w3.org/2000/svg">
<path d="M42 10V11H43V10H42Z" fill="#FFFF00"/>
<path fill-rule="evenodd" clip-rule="evenodd" d="M1 11V4H7V5H8V8H6V9H7V10H8V11H5V10H4V9H3V11H1ZM3 8V5H6V7H5V8H3Z" fill="#FFFF00"/>
<path d="M10 11H16V10H12V8H15V7H12V5H16V4H10V11Z" fill="#FFFF00"/>
<path fill-rule="evenodd" clip-rule="evenodd" d="M17 11V6H18V5H19V4H22V5H23V6H24V11H22V9H19V11H17ZM19 8V6H20V5H21V6H22V8H19Z" fill="#FFFF00"/>
<path fill-rule="evenodd" clip-rule="evenodd" d="M25 11V4H30V5H31V6H32V9H31V10H30V11H25ZM27 10V5H29V6H30V9H29V10H27Z" fill="#FFFF00"/>
<path d="M36 8V11H38V8H39V7H40V4H38V7H36V4H34V7H35V8H36Z" fill="#FFFF00"/>
<path d="M43 6V9H44V8H45V7H46V6H47V4H44V6H43Z" fill="#FFFF00"/>
</svg>
