<svg width="64" height="16" viewBox="0 0 64 16" fill="none" xmlns="http://www.w3.org/2000/svg">
<path d="M5 2H3V3H2V5H1V10H2V12H3V13H5V14H10V13H12V12H13V10H14V5H13V3H12V2H10V1H5V2Z" fill="#FFFF00"/>
<path d="M17 5V10H18V12H19V13H21V14H26V13H28V12H29V10H27V9H24V8H21V7H24V6H27V5H29V3H28V2H26V1H21V2H19V3H18V5H17Z" fill="#FFFF00"/>
<path d="M33 5V10H34V12H35V13H37V14H42V12H41V11H40V10H39V9H38V8H37V7H38V6H39V5H40V4H41V3H42V1H37V2H35V3H34V5H33Z" fill="#FFFF00"/>
<path d="M49 5V10H50V12H51V13H53V14H58V13H60V12H61V10H59V9H56V8H53V7H56V6H59V5H61V3H60V2H58V1H53V2H51V3H50V5H49Z" fill="#FFFF00"/>
</svg>
