<svg width="112" height="49" viewBox="0 0 112 49" fill="none" xmlns="http://www.w3.org/2000/svg">
<mask id="mask0_13_12" style="mask-type:alpha" maskUnits="userSpaceOnUse" x="0" y="0" width="112" height="49">
<path fill-rule="evenodd" clip-rule="evenodd" d="M46.3019 49L44.3798 14.7136C44.4139 14.3145 44.4309 13.9059 44.4309 13.488C44.4309 12.6485 44.3467 11.8579 44.1781 11.1161L43.5975 0.759995H58.4191L58.8662 24.7701L69.7311 0.759995H83.3046L83.8484 25.2732L95.0855 0.759995H111.544L86.5467 49H71.6926L71.0938 27.4413L61.033 49H46.3019ZM74.1624 12.784H74.2904L73.9704 22.96L74.6104 46H84.7224L106.61 3.75999H97.0104L81.1384 38.384L80.3704 3.75999H71.6664L56.1144 38.128L55.4744 3.75999H46.7704L49.1384 46H59.1224L69.8744 22.96L74.1624 12.784Z" fill="white"/>
<path fill-rule="evenodd" clip-rule="evenodd" d="M0.783936 49L11.9668 0.759995H32.3349C36.5667 0.759995 40.2924 1.73477 43.1332 4.06419C45.2942 5.83622 46.6258 8.10081 47.1606 10.7188L47.3864 14.7466C47.2397 16.7836 46.7282 18.7005 45.8057 20.4532C44.8229 22.3205 43.5033 23.9008 41.8549 25.1593C42.0436 25.338 42.2275 25.5248 42.4062 25.7196C44.3358 27.7777 45.2549 30.344 45.2549 33.2C45.2549 36.5146 44.4443 39.5219 42.6518 42.0426L42.6426 42.0556L42.6332 42.0685C40.8867 44.4699 38.4763 46.2214 35.5528 47.3807L35.54 47.3858L35.5272 47.3908C32.682 48.4889 29.487 49 25.9989 49H0.783936ZM40.2069 27.76C39.8781 27.4003 39.5246 27.0766 39.1462 26.7887C37.9569 25.8837 36.5231 25.3333 34.8447 25.1376C34.8401 25.1371 34.8355 25.1365 34.8309 25.136V25.072C34.8335 25.0715 34.836 25.0709 34.8385 25.0704C36.4742 24.7272 37.9402 24.1465 39.2365 23.3282C39.3917 23.2302 39.5446 23.1288 39.6949 23.024C41.1456 22 42.2976 20.6773 43.1509 19.056C44.0043 17.4347 44.4309 15.5787 44.4309 13.488C44.4309 10.5013 43.3643 8.13333 41.2309 6.384C39.0976 4.63466 36.1323 3.75999 32.3349 3.75999H14.3509L4.55894 46H25.9989C29.1989 46 32.0149 45.5307 34.4469 44.592C36.9216 43.6107 38.8416 42.1813 40.2069 40.304C41.5723 38.384 42.2549 36.016 42.2549 33.2C42.2549 31.024 41.5723 29.2107 40.2069 27.76ZM32.5269 30.448C32.1003 29.7653 31.4389 29.2533 30.5429 28.912C29.6469 28.5707 28.5376 28.4 27.2149 28.4H17.2949L14.7349 39.344H24.7829C27.5136 39.344 29.6043 38.7893 31.0549 37.68C32.5056 36.5707 33.2309 35.0133 33.2309 33.008C33.2309 31.984 32.9963 31.1307 32.5269 30.448ZM18.5177 36.344H24.7829C27.1661 36.344 28.5078 35.8512 29.2326 35.2969C29.8611 34.8163 30.2309 34.1844 30.2309 33.008C30.2309 32.4464 30.1067 32.223 30.0548 32.1476L30.0177 32.0936L29.983 32.038C29.9646 32.0086 29.8773 31.8687 29.475 31.7155C29.0226 31.5431 28.3015 31.4 27.2149 31.4H19.6742L18.5177 36.344ZM30.5013 18.0907L30.5215 18.081C31.2126 17.7482 31.6216 17.3518 31.8844 16.9202C32.1545 16.4763 32.3429 15.8812 32.3429 15.024C32.3429 14.5644 32.2647 14.3461 32.2297 14.2719C32.2071 14.224 32.1903 14.2001 32.1258 14.1588C31.6717 13.8682 30.9143 13.608 29.6469 13.608H23.7733L22.6087 18.616H27.6629C29.013 18.616 29.9058 18.3884 30.4813 18.1007L30.5013 18.0907ZM27.6629 21.616C29.3269 21.616 30.7136 21.3387 31.8229 20.784C32.9749 20.2293 33.8496 19.4613 34.4469 18.48C35.0443 17.4987 35.3429 16.3467 35.3429 15.024C35.3429 13.4453 34.8096 12.3147 33.743 11.632C32.6763 10.9493 31.3109 10.608 29.6469 10.608H21.3909L18.8309 21.616H27.6629Z" fill="white"/>
</mask>
<g mask="url(#mask0_13_12)">
<rect width="130" height="75" transform="matrix(-1 0 0 1 118 -13)" fill="url(#paint0_linear_13_12)"/>
</g>
<defs>
<linearGradient id="paint0_linear_13_12" x1="16" y1="65.5" x2="113" y2="10.5" gradientUnits="userSpaceOnUse">
<stop stop-color="#2ADDC8"/>
<stop offset="0.25" stop-color="#49C0EF"/>
<stop offset="0.5" stop-color="#B57EF9"/>
<stop offset="0.75" stop-color="#E58FD6"/>
<stop offset="1" stop-color="#EBDE92"/>
</linearGradient>
</defs>
</svg>
