<svg width="111" height="49" viewBox="0 0 111 49" fill="none" xmlns="http://www.w3.org/2000/svg">
<mask id="mask0_308_18" style="mask-type:alpha" maskUnits="userSpaceOnUse" x="0" y="0" width="111" height="49">
<path fill-rule="evenodd" clip-rule="evenodd" d="M45.518 49L43.5958 14.7136C43.6299 14.3145 43.647 13.9059 43.647 13.488C43.647 12.6485 43.5627 11.8579 43.3942 11.1161L42.8136 0.759995H57.6351L58.0823 24.7701L68.9472 0.759995H82.5207L83.0644 25.2732L94.3015 0.759995H110.76L85.7628 49H70.9087L70.3098 27.4413L60.2491 49H45.518ZM73.3785 12.784H73.5065L73.1865 22.96L73.8265 46H83.9385L105.826 3.75999H96.2265L80.3545 38.384L79.5865 3.75999H70.8825L55.3305 38.128L54.6905 3.75999H45.9865L48.3545 46H58.3385L69.0905 22.96L73.3785 12.784Z" fill="white"/>
<path fill-rule="evenodd" clip-rule="evenodd" d="M0 49L11.1829 0.759995H31.551C35.7828 0.759995 39.5085 1.73477 42.3493 4.06419C44.5103 5.83622 45.8419 8.10081 46.3766 10.7188L46.6024 14.7466C46.4558 16.7836 45.9443 18.7005 45.0218 20.4532C44.039 22.3205 42.7194 23.9008 41.0709 25.1593C41.2597 25.338 41.4435 25.5248 41.6223 25.7196C43.5518 27.7777 44.471 30.344 44.471 33.2C44.471 36.5146 43.6603 39.5219 41.8679 42.0426L41.8586 42.0556L41.8492 42.0685C40.1027 44.4699 37.6924 46.2214 34.7689 47.3807L34.7561 47.3858L34.7432 47.3908C31.8981 48.4889 28.703 49 25.215 49H0ZM39.423 27.76C39.0942 27.4003 38.7406 27.0766 38.3623 26.7887C37.173 25.8837 35.7392 25.3333 34.0607 25.1376C34.0562 25.1371 34.0516 25.1365 34.047 25.136V25.072C34.0495 25.0715 34.0521 25.0709 34.0546 25.0704C35.6902 24.7272 37.1562 24.1465 38.4525 23.3282C38.6078 23.2302 38.7606 23.1288 38.911 23.024C40.3617 22 41.5137 20.6773 42.367 19.056C43.2203 17.4347 43.647 15.5787 43.647 13.488C43.647 10.5013 42.5803 8.13333 40.447 6.384C38.3137 4.63466 35.3483 3.75999 31.551 3.75999H13.567L3.77501 46H25.215C28.415 46 31.231 45.5307 33.663 44.592C36.1377 43.6107 38.0577 42.1813 39.423 40.304C40.7883 38.384 41.471 36.016 41.471 33.2C41.471 31.024 40.7883 29.2107 39.423 27.76ZM31.743 30.448C31.3163 29.7653 30.655 29.2533 29.759 28.912C28.863 28.5707 27.7537 28.4 26.431 28.4H16.511L13.951 39.344H23.999C26.7297 39.344 28.8203 38.7893 30.271 37.68C31.7217 36.5707 32.447 35.0133 32.447 33.008C32.447 31.984 32.2123 31.1307 31.743 30.448ZM17.7337 36.344H23.999C26.3822 36.344 27.7238 35.8512 28.4487 35.2969C29.0771 34.8163 29.447 34.1844 29.447 33.008C29.447 32.4464 29.3227 32.223 29.2709 32.1476L29.2338 32.0936L29.199 32.038C29.1807 32.0086 29.0933 31.8687 28.691 31.7155C28.2387 31.5431 27.5175 31.4 26.431 31.4H18.8902L17.7337 36.344ZM29.7174 18.0907L29.7376 18.081C30.4286 17.7482 30.8377 17.3518 31.1004 16.9202C31.3706 16.4763 31.559 15.8812 31.559 15.024C31.559 14.5644 31.4807 14.3461 31.4457 14.2719C31.4231 14.224 31.4063 14.2001 31.3418 14.1588C30.8878 13.8682 30.1304 13.608 28.863 13.608H22.9894L21.8247 18.616H26.879C28.2291 18.616 29.1219 18.3884 29.6974 18.1007L29.7174 18.0907ZM26.879 21.616C28.543 21.616 29.9297 21.3387 31.039 20.784C32.191 20.2293 33.0657 19.4613 33.663 18.48C34.2603 17.4987 34.559 16.3467 34.559 15.024C34.559 13.4453 34.0257 12.3147 32.959 11.632C31.8923 10.9493 30.527 10.608 28.863 10.608H20.607L18.047 21.616H26.879Z" fill="white"/>
</mask>
<g mask="url(#mask0_308_18)">
<rect width="130" height="75" transform="matrix(-1 0 0 1 117.216 -13)" fill="black"/>
</g>
</svg>
