<svg width="32" height="16" viewBox="0 0 32 16" fill="none" xmlns="http://www.w3.org/2000/svg">
<path d="M3 3V4H2V7H1V15H2V14H3V13H4V14H5V15H7V13H9V15H11V14H12V13H13V14H14V15H15V7H14V4H13V3H12V2H10V1H6V2H5H4V3H3Z" fill="#FCB5FF"/>
<path d="M4 9V10H6V9H7V6H6V5H4V6H3V9H4Z" fill="#E0DDFF"/>
<path d="M4 10V8H6V10H4Z" fill="#2121FF"/>
<path d="M10 9V10H12V9H13V6H12V5H10V6H9V9H10Z" fill="#E0DDFF"/>
<path d="M10 10V8H12V10H10Z" fill="#2121FF"/>
<path d="M19 3V4H18V7H17V14H18V15H20V14H21V13H22V14H23V15H25V14H26V13H27V14H28V15H30V14H31V7H30V4H29V3H28V2H26V1H22V2H21H20V3H19Z" fill="#FCB5FF"/>
<path d="M20 9V10H22V9H23V6H22V5H20V6H19V9H20Z" fill="#E0DDFF"/>
<path d="M20 10V8H22V10H20Z" fill="#2121FF"/>
<path d="M26 9V10H28V9H29V6H28V5H26V6H25V9H26Z" fill="#E0DDFF"/>
<path d="M26 10V8H28V10H26Z" fill="#2121FF"/>
</svg>
