<svg xmlns="http://www.w3.org/2000/svg" viewBox="0 -0.5 32 16" shape-rendering="crispEdges">
<metadata>Made with Pixels to Svg https://codepen.io/shshaw/pen/XbxvNj</metadata>
<path stroke="#010101" d="M5 0h1M7 0h1M4 1h1M22 1h1M2 2h1M11 5h1M18 5h1M28 5h1M1 6h1M0 8h1M17 8h1M20 9h1M22 10h1M2 11h1M18 11h1M31 11h1M2 12h1M18 12h1" />
<path stroke="#000100" d="M6 0h1M24 0h1M27 0h1M21 1h1M1 3h1M1 4h1M27 4h1M2 5h1M27 5h1M0 7h1M2 7h1M16 7h2M2 8h2M16 8h1M2 9h1M0 10h1M19 11h2M17 12h1" />
<path stroke="#010100" d="M8 0h1M12 0h1M3 1h1M6 1h1M20 2h1M17 3h1M23 4h1M23 5h1M16 6h2M2 10h1M18 10h1M20 10h1M1 11h1M6 11h1M14 11h1M18 15h1" />
<path stroke="#010001" d="M9 0h1M21 0h1M28 0h1M5 1h1M19 2h1M7 4h1M18 4h1M0 5h1M7 5h1M16 5h1M18 6h1M1 7h1M18 8h1M0 9h1M5 10h1M30 10h2M4 11h1M15 11h1M21 11h1M0 12h1M18 13h1M1 14h2" />
<path stroke="#000101" d="M10 0h1M22 0h1M20 1h1M3 2h2M1 8h1M1 9h1M4 9h1M14 10h1M3 11h1M5 11h1M18 14h1" />
<path stroke="#000001" d="M11 0h1M26 0h1M18 3h1M2 4h1M8 5h1M24 5h1M2 6h1M3 9h1M16 9h1M1 10h1M3 10h2M15 10h1M21 10h1M16 11h2M22 11h1M30 11h1M16 12h1M0 13h3" />
<path stroke="#010000" d="M23 0h1M18 2h1M2 3h1M12 5h1M19 8h1M17 9h3M16 10h1M19 10h1M0 11h1M16 13h1M17 14h1M2 15h1" />
<path stroke="#000000" d="M25 0h1M19 1h1M3 3h1M19 3h1M11 4h1M17 4h1M1 5h1M17 5h1M0 6h1M18 7h1M6 10h1M17 10h1M1 12h1M17 13h1" />
<path stroke="#fefde2" d="M7 1h1M27 2h2M4 3h1M8 4h1M13 4h1M29 4h1M3 5h1M20 5h2M19 7h2M23 8h1M25 8h1M26 10h1M12 11h1M23 11h1M6 12h1M23 12h1M6 13h1M22 13h1M23 14h1M28 14h2" />
<path stroke="#fefde3" d="M8 1h1M24 1h1M7 2h1M29 2h1M9 3h1M12 3h1M19 4h2M10 5h1M4 6h1M7 6h1M22 6h1M21 7h1M4 8h1M13 9h1M23 9h1M26 9h2M10 10h1M24 10h1M11 11h1M27 11h2M4 12h1M12 12h1M22 12h1M4 13h1M19 13h1M24 13h1M3 14h1M5 14h1M21 14h1M25 14h1" />
<path stroke="#fefce2" d="M9 1h1M23 1h1M9 2h1M13 2h1M26 3h1M5 4h1M24 4h1M26 4h1M6 5h1M9 5h1M26 5h1M3 7h1M6 7h1M22 7h1M7 8h1M12 8h1M24 8h1M29 8h1M13 11h1M25 12h1M29 12h1M7 13h1M11 13h1M25 13h1M19 14h1M22 14h1" />
<path stroke="#fffce3" d="M10 1h2M28 1h1M21 2h2M24 2h1M5 3h1M9 4h2M21 4h1M5 5h1M13 5h1M22 5h1M3 6h1M20 6h1M24 6h1M7 7h1M29 7h1M11 8h1M13 8h1M7 9h1M21 9h2M24 9h1M23 10h1M8 11h1M26 11h1M9 12h2M20 12h2M24 12h1M8 13h1M23 13h1M20 14h1" />
<path stroke="#fefce3" d="M12 1h1M27 1h1M8 2h1M11 2h1M25 2h1M11 3h1M3 4h1M6 4h1M28 4h1M29 5h1M9 6h2M26 6h1M4 7h1M9 7h1M12 7h1M25 7h1M12 9h1M25 9h1M28 9h1M9 10h1M13 10h1M25 10h1M11 12h1M5 13h1M10 13h1M6 14h2M26 14h1" />
<path stroke="#fffce2" d="M25 1h1M5 2h1M12 2h1M26 2h1M6 3h1M22 3h1M27 3h1M4 4h1M25 4h1M6 6h1M8 6h1M19 6h1M25 6h1M8 7h1M28 7h1M9 8h2M20 8h2M26 8h1M6 9h1M8 9h1M7 10h2M11 10h1M29 10h1M9 11h1M24 11h1M26 12h1M9 13h1M20 13h1M8 14h2M11 14h2" />
<path stroke="#fffde3" d="M26 1h1M8 3h1M20 3h2M25 3h1M28 3h2M12 4h1M19 5h1M23 6h1M5 7h1M13 7h1M6 8h1M8 8h1M22 8h1M5 9h1M9 9h2M29 9h1M12 10h1M25 11h1M13 12h1M19 12h1M27 12h1M12 13h2M26 13h1M28 13h1M13 14h1M24 14h1" />
<path stroke="#fffde2" d="M6 2h1M10 2h1M23 2h1M7 3h1M10 3h1M13 3h1M23 3h2M22 4h1M4 5h1M25 5h1M5 6h1M21 6h1M10 7h1M23 7h2M26 7h1M5 8h1M27 8h2M11 9h1M27 10h2M7 11h1M10 11h1M29 11h1M3 12h1M5 12h1M7 12h2M28 12h1M3 13h1M21 13h1M27 13h1M29 13h1M4 14h1M10 14h1M27 14h1" />
<path stroke="#fef201" d="M11 6h1M27 7h1M23 15h1" />
<path stroke="#fef301" d="M12 6h1M5 15h1M22 15h1M26 15h1" />
<path stroke="#fff201" d="M13 6h1M27 6h1M30 6h1M11 15h1M15 15h1M20 15h1M27 15h2" />
<path stroke="#fff200" d="M14 6h1M29 6h1M11 7h1M7 15h2M25 15h1M29 15h1" />
<path stroke="#fef300" d="M28 6h1M12 15h1M19 15h1" />
<path stroke="#fef9bc" d="M3 15h1M10 15h1" />
<path stroke="#fff9bc" d="M4 15h1" />
<path stroke="#fff301" d="M6 15h1M14 15h1M21 15h1" />
<path stroke="#fef200" d="M9 15h1M13 15h1" />
<path stroke="#fff9bd" d="M24 15h1" />
</svg>