<svg xmlns="http://www.w3.org/2000/svg" viewBox="0 -0.5 32 16" shape-rendering="crispEdges">
<metadata>Made with Pixels to Svg https://codepen.io/shshaw/pen/XbxvNj</metadata>
<path stroke="#010100" d="M4 0h1M10 3h1M15 3h1M26 7h1M14 9h1M30 10h1M6 12h1M13 12h1M2 13h1M6 13h1M10 13h2M18 13h1M29 13h1M21 14h2M6 15h1M9 15h1M20 15h1" />
<path stroke="#000001" d="M5 0h1M20 0h1M27 4h1M6 11h1M7 12h1M12 12h1M14 12h1M4 13h1M28 13h1M3 14h1M11 14h1M17 14h1M24 14h2M18 15h1" />
<path stroke="#fff201" d="M16 0h1M9 2h1M16 3h1M25 4h1M16 10h1" />
<path stroke="#010101" d="M21 0h1M4 1h1M15 6h1M10 8h1M27 8h1M5 9h1M30 9h1M14 10h2M20 11h2M21 12h1M1 13h1M5 13h1M8 13h2M23 13h1M25 13h1M27 13h1M4 14h1M9 14h1M28 14h1M19 15h1" />
<path stroke="#000000" d="M5 1h1M10 7h1M15 7h1M15 9h1M4 10h1M29 11h1M5 12h1M22 12h1M28 12h1M0 13h1M12 13h1M16 13h1M5 14h1M10 14h1M12 14h1M19 14h2M7 15h1M21 15h1M26 15h1" />
<path stroke="#fff300" d="M9 1h1M25 1h1M25 3h1M16 4h1M24 4h1M0 6h1M16 8h1M0 12h1" />
<path stroke="#fef301" d="M16 1h1M16 7h1M0 10h1" />
<path stroke="#010001" d="M20 1h1M10 4h1M15 4h1M31 4h1M31 6h1M26 8h1M20 9h2M31 9h1M31 10h1M30 11h1M23 12h1M29 12h1M3 13h1M7 13h1M17 13h1M1 14h1M26 14h1M8 15h1M22 15h1M24 15h1" />
<path stroke="#010000" d="M21 1h1M26 4h1M31 5h1M11 8h1M5 10h1M13 11h1M4 12h1M20 13h1M22 13h1M26 13h1M27 14h1M10 15h1" />
<path stroke="#fff301" d="M0 2h1M16 2h1M0 9h1" />
<path stroke="#fffde3" d="M1 2h1M27 2h1M4 3h1M6 3h1M6 4h1M25 5h1M5 6h1M8 6h1M13 6h1M17 6h1M28 6h1M13 7h2M21 7h1M12 8h1M28 8h1M1 9h1M18 9h1M23 9h1M1 10h1M18 10h1M1 11h1M11 11h1M19 12h1" />
<path stroke="#fffce3" d="M2 2h1M22 2h1M24 2h1M1 3h1M8 3h1M13 3h1M19 3h1M22 3h1M30 4h1M3 5h1M12 5h1M17 5h1M23 5h1M3 6h1M7 6h1M11 6h1M23 6h1M26 6h1M2 7h1M9 7h1M12 7h1M4 8h1M14 8h1M17 8h1M20 8h1M6 9h2M12 9h1M17 9h1M22 9h1M29 9h1M8 10h1M12 10h1M3 11h1M7 11h1M12 11h1M25 11h2M2 12h1" />
<path stroke="#fffde2" d="M3 2h1M10 2h1M17 2h1M19 2h1M21 2h1M26 2h1M5 3h1M17 3h1M3 4h1M12 4h1M14 4h1M18 4h1M20 4h1M29 4h1M13 5h1M28 5h1M14 6h1M21 6h1M5 7h1M17 7h2M22 7h1M24 7h1M28 7h2M1 8h1M7 8h1M18 8h2M21 8h1M9 9h1M26 10h1M28 10h1M10 11h1M19 11h1M27 11h1M3 12h1M8 12h1M10 12h1M17 12h1M27 12h1" />
<path stroke="#fffce2" d="M4 2h1M12 3h1M14 3h1M18 3h1M13 4h1M22 4h2M30 5h1M2 6h1M22 6h1M30 6h1M9 8h1M23 8h1M25 8h1M3 9h1M11 9h1M19 9h1M24 9h1M26 9h2M6 10h1M9 10h1M13 10h1M23 11h2M11 12h1M24 12h1" />
<path stroke="#fefce2" d="M5 2h1M11 2h3M23 2h1M28 2h1M20 3h2M23 3h1M28 3h2M2 4h1M4 4h1M1 5h1M4 5h2M10 5h1M14 5h1M19 5h1M21 5h2M24 5h1M6 6h1M20 6h1M25 6h1M27 6h1M4 7h1M6 7h1M11 7h1M19 7h2M23 7h1M22 8h1M25 9h1M7 10h1M19 10h1M2 11h1M18 11h1" />
<path stroke="#fefde3" d="M6 2h2M20 2h1M29 2h1M2 3h1M7 3h1M11 3h1M24 3h1M1 4h1M5 4h1M7 4h1M21 4h1M28 4h1M2 5h1M6 5h1M20 5h1M10 6h1M12 6h1M25 7h1M27 7h1M2 8h1M6 8h1M13 8h1M3 10h1M11 10h1M22 10h1M24 10h1M8 11h1M1 12h1M25 12h2" />
<path stroke="#fefce3" d="M8 2h1M30 3h1M17 4h1M19 4h1M7 5h1M9 5h1M11 5h1M26 5h1M29 5h1M1 6h1M9 6h1M24 6h1M1 7h1M7 7h2M30 7h1M5 8h1M8 8h1M24 8h1M30 8h1M8 9h1M13 9h1M28 9h1M2 10h1M17 10h1M23 10h1M25 10h1M9 11h1M28 11h1M18 12h1" />
<path stroke="#fefde2" d="M18 2h1M3 3h1M27 3h1M8 5h1M18 5h1M27 5h1M4 6h1M18 6h2M29 6h1M3 7h1M3 8h1M29 8h1M2 9h1M10 9h1M10 10h1M27 10h1M29 10h1M17 11h1M9 12h1" />
<path stroke="#fff200" d="M25 2h1M0 3h1M9 3h1M16 9h1M0 11h1" />
<path stroke="#000101" d="M26 3h1M11 4h1M15 8h1M4 9h1M4 11h2M14 11h1M30 12h1M13 13h1M24 13h1M6 14h1M3 15h2M25 15h1" />
<path stroke="#000100" d="M31 3h1M15 5h1M31 7h1M31 8h1M20 10h2M22 11h1M20 12h1M19 13h1M21 13h1M2 14h1M7 14h2M18 14h1M23 14h1M2 15h1M5 15h1M23 15h1" />
<path stroke="#fef200" d="M0 4h1M8 4h2M0 5h1" />
<path stroke="#fef9bd" d="M16 5h1" />
<path stroke="#fef300" d="M16 6h1" />
<path stroke="#fef8bd" d="M0 7h1" />
<path stroke="#fef201" d="M0 8h1" />
<path stroke="#fef8bc" d="M16 11h1M16 12h1" />
</svg>